# xmcd
#
# Track frame offsets:
#	150
#	12100
#	24650
#	35950
#	48925
#	59450
#	74925
#	89875
#	102425
#	116500
#	128475
#	142725
#	153250
#	165000
#	174950
#	186625
#
# Disc length: 2633 seconds
#
# Revision: 3
# Processed by: cddbd v1.5.2PL0 Copyright (c) Steve Scherf et al.
# Submitted via: audiograbber 1.83.01
#
DISCID=db0a4710
DTITLE=Dean Martin - Gold Vol. 1 CD 2
DYEAR=1900
DGENRE=Blues
TTITLE0=Houston
TTITLE1=Red Roses For A Blue Lady
TTITLE2=Send Me The Pillow You Dream On
TTITLE3=April Again
TTITLE4=King Of The Road
TTITLE5=My Woman, My Woman, My Wife
TTITLE6=Not Enough Indians
TTITLE7=Make The World Go Away
TTITLE8=Rainbows Are Back In Style
TTITLE9=That's When I See The Blues
TTITLE10=My Heart Cries For You
TTITLE11=I Wonder Who's Kissing Her Now
TTITLE12=I'll Hold You In My Heart
TTITLE13=Ramblin' Rose
TTITLE14=I Don't Think You Love Me
TTITLE15=Welcome To My Heart
EXTD=
EXTT0=
EXTT1=
EXTT2=
EXTT3=
EXTT4=
EXTT5=
EXTT6=
EXTT7=
EXTT8=
EXTT9=
EXTT10=
EXTT11=
EXTT12=
EXTT13=
EXTT14=
EXTT15=
PLAYORDER=
